<?xml version="1.0" encoding="UTF-8"?>
<svg version="1.1" xmlns="http://www.w3.org/2000/svg" width="84" height="56">
<path d="M0 0 C0.99 0.33 1.98 0.66 3 1 C3 6.61 3 12.22 3 18 C-7.62658228 22.80379747 -7.62658228 22.80379747 -14 21 C-16.31 20.01 -18.62 19.02 -21 18 C-21 12.39 -21 6.78 -21 1 C-12.70063295 -2.72407496 -8.36689074 -3.57466041 0 0 Z M-19 3 C-17.35 4.98 -15.7 6.96 -14 9 C-13.67 8.01 -13.34 7.02 -13 6 C-13.66 5.01 -14.32 4.02 -15 3 C-13.68 3 -12.36 3 -11 3 C-11 2.34 -11 1.68 -11 1 C-14.20395416 1 -16.09399739 1.74335022 -19 3 Z M-5 8 C-4.67 9.32 -4.34 10.64 -4 12 C-3.34 11.67 -2.68 11.34 -2 11 C-2 10.34 -2 9.68 -2 9 C-2.99 8.67 -3.98 8.34 -5 8 Z M-16 12 C-16 13.32 -16 14.64 -16 16 C-16.99 16.495 -16.99 16.495 -18 17 C-15.36 17.66 -12.72 18.32 -10 19 C-11.39332574 15.63279613 -12.9789286 14.0140476 -16 12 Z " fill="#F1A432" transform="translate(51,7)"/>
<path d="M0 0 C-0.99 0.66 -1.98 1.32 -3 2 C-3.50702517 4.12106795 -3.50702517 4.12106795 -3.51171875 6.5703125 C-3.54716797 7.46621094 -3.58261719 8.36210937 -3.61914062 9.28515625 C-3.65297852 10.69087891 -3.65297852 10.69087891 -3.6875 12.125 C-3.72166016 13.06988281 -3.75582031 14.01476563 -3.79101562 14.98828125 C-3.87364112 17.32540253 -3.94273988 19.66214191 -4 22 C-0.535 21.505 -0.535 21.505 3 21 C0.77594427 23.22405573 -0.76062275 23.71516488 -3.84765625 24.11328125 C-8.23445467 23.88239712 -12.04662955 21.78714007 -16 20 C-16 14.39 -16 8.78 -16 3 C-4.88392857 -1.41964286 -4.88392857 -1.41964286 0 0 Z M-14 5 C-12.35 6.98 -10.7 8.96 -9 11 C-8.67 10.01 -8.34 9.02 -8 8 C-8.66 7.01 -9.32 6.02 -10 5 C-8.68 5 -7.36 5 -6 5 C-6 4.34 -6 3.68 -6 3 C-9.20395416 3 -11.09399739 3.74335022 -14 5 Z M-11 14 C-11 15.32 -11 16.64 -11 18 C-11.99 18.495 -11.99 18.495 -13 19 C-10.36 19.66 -7.72 20.32 -5 21 C-6.39332574 17.63279613 -7.9789286 16.0140476 -11 14 Z " fill="#D09765" transform="translate(46,5)"/>
<path d="M0 0 C0.9765625 6.0546875 0.9765625 6.0546875 1 8 C-1 10 -1 10 -3.96875 10.265625 C-5.1340625 10.26046875 -6.299375 10.2553125 -7.5 10.25 C-8.6653125 10.25515625 -9.830625 10.2603125 -11.03125 10.265625 C-14 10 -14 10 -16 8 C-16.26991906 5.31160615 -16.08737357 2.70858064 -16 0 C-15.01 0 -14.02 0 -13 0 C-12.67 1.98 -12.34 3.96 -12 6 C-11.67 4.02 -11.34 2.04 -11 0 C-3.57142857 -1.28571429 -3.57142857 -1.28571429 0 0 Z M-7 4 C-7 4.66 -7 5.32 -7 6 C-6.34 5.67 -5.68 5.34 -5 5 C-5.66 4.67 -6.32 4.34 -7 4 Z " fill="#FFFFFF" transform="translate(72,37)"/>
<path d="M0 0 C2.475 0.495 2.475 0.495 5 1 C5.33 1.66 5.66 2.32 6 3 C6.33 2.01 6.66 1.02 7 0 C8.32 0 9.64 0 11 0 C11 4.29 11 8.58 11 13 C7 12 7 12 5 9 C4.67 10.32 4.34 11.64 4 13 C2.68 13 1.36 13 0 13 C0 8.71 0 4.42 0 0 Z " fill="#FFFFFF" transform="translate(11,34)"/>
<path d="M0 0 C0.33 4.95 0.66 9.9 1 15 C-0.32 14.67 -1.64 14.34 -3 14 C-3.33 14.33 -3.66 14.66 -4 15 C-6.9375 15.1875 -6.9375 15.1875 -10 15 C-12 13 -12 13 -12.3125 9.5 C-12.209375 8.345 -12.10625 7.19 -12 6 C-9 4 -9 4 -6.8125 4.375 C-6.214375 4.58125 -5.61625 4.7875 -5 5 C-5 5.99 -5 6.98 -5 8 C-6.32 8 -7.64 8 -9 8 C-8.67 8.99 -8.34 9.98 -8 11 C-7.01 11 -6.02 11 -5 11 C-4.95101562 10.28972656 -4.90203125 9.57945313 -4.8515625 8.84765625 C-4.73941406 7.46900391 -4.73941406 7.46900391 -4.625 6.0625 C-4.55539063 5.14597656 -4.48578125 4.22945312 -4.4140625 3.28515625 C-4.27742188 2.53105469 -4.14078125 1.77695312 -4 1 C-2 0 -2 0 0 0 Z " fill="#FFFFFF" transform="translate(45,32)"/>
<path d="M0 0 C-2.31856917 1.54571278 -4.50638429 2.79618552 -7 4 C-7 4.99 -7 5.98 -7 7 C-7.28627045 9.67356157 -7.65031551 12.33365575 -8 15 C-7.34 15 -6.68 15 -6 15 C-6 13.68 -6 12.36 -6 11 C-5.34 11.33 -4.68 11.66 -4 12 C-4.33 13.32 -4.66 14.64 -5 16 C-3.02 16.99 -1.04 17.98 1 19 C-0.5625 20.1875 -0.5625 20.1875 -3 21 C-5.31 20.01 -7.62 19.02 -10 18 C-10 12.39 -10 6.78 -10 1 C-4.375 -1.25 -4.375 -1.25 0 0 Z " fill="#CEAF89" transform="translate(40,7)"/>
<path d="M0 0 C2.97 0 5.94 0 9 0 C9 3.3 9 6.6 9 10 C5.625 10.1875 5.625 10.1875 2 10 C-0.4294516 6.3558226 -0.16179575 4.28758728 0 0 Z " fill="#FFFFFF" transform="translate(23,37)"/>
<path d="M0 0 C2.375 0.75 2.375 0.75 3.375 1.75 C3.44679964 3.26928038 3.45892007 4.79167482 3.4375 6.3125 C3.42847656 7.13878906 3.41945313 7.96507812 3.41015625 8.81640625 C3.39855469 9.45449219 3.38695312 10.09257813 3.375 10.75 C-2.05357143 11.11190476 -2.05357143 11.11190476 -4.5 9.5625 C-6.03159584 7.09492892 -6.05322025 5.60480169 -5.625 2.75 C-3.89661648 0.0209734 -3.25158859 -0.3096751 0 0 Z " fill="#FFFFFF" transform="translate(51.625,36.25)"/>
<path d="M0 0 C1.65 0.33 3.3 0.66 5 1 C5 6.61 5 12.22 5 18 C4.67 18 4.34 18 4 18 C3.67 14.04 3.34 10.08 3 6 C3 6.66 3 7.32 3 8 C3 8.99 3 9.98 3 11 C2.01 11 1.02 11 0 11 C0 10.34 0 9.68 0 9 C-0.66 9 -1.32 9 -2 9 C-2 10.32 -2 11.64 -2 13 C-2.66 13 -3.32 13 -4 13 C-4 11.02 -4 9.04 -4 7 C-2.68 6.34 -1.36 5.68 0 5 C0 3.35 0 1.7 0 0 Z " fill="#DEB273" transform="translate(49,7)"/>
<path d="M0 0 C0.33 0 0.66 0 1 0 C1.02684679 2.64590014 1.04676357 5.29153096 1.0625 7.9375 C1.07087891 8.69224609 1.07925781 9.44699219 1.08789062 10.22460938 C1.09652441 12.14994313 1.05224333 14.07535581 1 16 C0 17 0 17 -3.0625 17.0625 C-4.031875 17.041875 -5.00125 17.02125 -6 17 C-5.37240135 14.07120629 -4.41377341 11.63904371 -3 9 C-2.01 9 -1.02 9 0 9 C0 8.01 0 7.02 0 6 C-0.66 5.67 -1.32 5.34 -2 5 C-1.34 3.35 -0.68 1.7 0 0 Z " fill="#D87335" transform="translate(52,9)"/>
<path d="M0 0 C0.99 0.33 1.98 0.66 3 1 C3 1.99 3 2.98 3 4 C3.99 4 4.98 4 6 4 C6.33 3.01 6.66 2.02 7 1 C7 3.64 7 6.28 7 9 C5.68 8.34 4.36 7.68 3 7 C3 6.34 3 5.68 3 5 C2.34 5 1.68 5 1 5 C1 6.32 1 7.64 1 9 C0.34 9 -0.32 9 -1 9 C-1.09765625 2.84765625 -1.09765625 2.84765625 -1 1 C-0.67 0.67 -0.34 0.34 0 0 Z " fill="#D98F49" transform="translate(33,13)"/>
<path d="M0 0 C-0.99 0.66 -1.98 1.32 -3 2 C-3.680625 2.53625 -4.36125 3.0725 -5.0625 3.625 C-7 5 -7 5 -9 5 C-9 9.29 -9 13.58 -9 18 C-9.33 18 -9.66 18 -10 18 C-10 12.39 -10 6.78 -10 1 C-4.375 -1.25 -4.375 -1.25 0 0 Z " fill="#DABDA1" transform="translate(40,7)"/>
<path d="M0 0 C1.2065625 0.0309375 1.2065625 0.0309375 2.4375 0.0625 C2.7675 1.3825 3.0975 2.7025 3.4375 4.0625 C1.1275 5.3825 -1.1825 6.7025 -3.5625 8.0625 C-3.60491723 5.72955225 -3.60342937 3.39547433 -3.5625 1.0625 C-2.5625 0.0625 -2.5625 0.0625 0 0 Z " fill="#F39032" transform="translate(45.5625,5.9375)"/>
<path d="M0 0 C3.3 0 6.6 0 10 0 C10 0.99 10 1.98 10 3 C6.7 3 3.4 3 0 3 C0 2.01 0 1.02 0 0 Z " fill="#FFFFFF" transform="translate(40,48)"/>
<path d="M0 0 C0.66 0.33 1.32 0.66 2 1 C0.68 3.64 -0.64 6.28 -2 9 C-2.99 9 -3.98 9 -5 9 C-5 8.01 -5 7.02 -5 6 C-4.34 6 -3.68 6 -3 6 C-2.67 4.68 -2.34 3.36 -2 2 C-1.34 2 -0.68 2 0 2 C0 1.34 0 0.68 0 0 Z " fill="#E4963A" transform="translate(47,18)"/>
<path d="M0 0 C1.0326802 2.78823655 1.04509293 3.8677274 0.0625 6.75 C-0.288125 7.4925 -0.63875 8.235 -1 9 C-1.99 9 -2.98 9 -4 9 C-3.7215625 8.1028125 -3.7215625 8.1028125 -3.4375 7.1875 C-2.77906313 4.83591238 -2.77906313 4.83591238 -4 2 C-2.68 2 -1.36 2 0 2 C0 1.34 0 0.68 0 0 Z " fill="#D1C6B8" transform="translate(40,8)"/>
<path d="M0 0 C-0.99 0.66 -1.98 1.32 -3 2 C-3.57748803 3.96361864 -3.57748803 3.96361864 -3.6875 6.125 C-3.8421875 8.043125 -3.8421875 8.043125 -4 10 C-4.33 10 -4.66 10 -5 10 C-5 7.36 -5 4.72 -5 2 C-5.99 2 -6.98 2 -8 2 C-8 1.34 -8 0.68 -8 0 C-4.71023192 -1.09658936 -3.28696233 -0.79953138 0 0 Z " fill="#DBAC6C" transform="translate(46,5)"/>
<path d="M0 0 C1.98 0 3.96 0 6 0 C6.33 1.32 6.66 2.64 7 4 C4.69 3.67 2.38 3.34 0 3 C0 2.01 0 1.02 0 0 Z " fill="#FFFFFF" transform="translate(66,48)"/>
<path d="M0 0 C2 2 2 2 2.1953125 3.9453125 C2.13020833 5.96354167 2.06510417 7.98177083 2 10 C1.01 10 0.02 10 -1 10 C-0.67 6.7 -0.34 3.4 0 0 Z " fill="#BC9574" transform="translate(40,13)"/>
<path d="M0 0 C2.75 0.25 2.75 0.25 5 1 C1.81237635 3.12508244 -0.26512223 3.5020163 -4 4 C-2.3125 1.9375 -2.3125 1.9375 0 0 Z " fill="#D8B690" transform="translate(35,6)"/>
<path d="M0 0 C1.65 0 3.3 0 5 0 C5 0.99 5 1.98 5 3 C3.35 3.66 1.7 4.32 0 5 C0 3.35 0 1.7 0 0 Z " fill="#EC8C40" transform="translate(43,6)"/>
<path d="M0 0 C2.31 0.66 4.62 1.32 7 2 C5.3125 3.125 5.3125 3.125 3 4 C0.25 3.125 0.25 3.125 -2 2 C-1.34 1.34 -0.68 0.68 0 0 Z " fill="#D7BB8C" transform="translate(34,24)"/>
<path d="M0 0 C2.475 0.495 2.475 0.495 5 1 C4.67 2.32 4.34 3.64 4 5 C2.68 4.67 1.36 4.34 0 4 C0 2.68 0 1.36 0 0 Z " fill="#FFFFFF" transform="translate(57,47)"/>
<path d="M0 0 C2.475 0.495 2.475 0.495 5 1 C5 1.99 5 2.98 5 4 C3.35 4 1.7 4 0 4 C0 2.68 0 1.36 0 0 Z " fill="#FFFFFF" transform="translate(24,47)"/>
<path d="M0 0 C1.32 0 2.64 0 4 0 C4 0.99 4 1.98 4 3 C2.68 3 1.36 3 0 3 C0 2.01 0 1.02 0 0 Z " fill="#FFFFFF" transform="translate(11,48)"/>
<path d="M0 0 C0.66 0.33 1.32 0.66 2 1 C2 1.99 2 2.98 2 4 C1.01 4 0.02 4 -1 4 C-0.67 2.68 -0.34 1.36 0 0 Z " fill="#FFFFFF" transform="translate(32,47)"/>
<path d="M0 0 C0.33 1.32 0.66 2.64 1 4 C0.01 4 -0.98 4 -2 4 C-2 3.01 -2 2.02 -2 1 C-1.34 0.67 -0.68 0.34 0 0 Z " fill="#FFFFFF" transform="translate(22,47)"/>
<path d="M0 0 C0.99 0 1.98 0 3 0 C3 0.99 3 1.98 3 3 C2.01 3 1.02 3 0 3 C0 2.01 0 1.02 0 0 Z " fill="#FFFFFF" transform="translate(36,48)"/>
<path d="M0 0 C0.66 0 1.32 0 2 0 C2 0.99 2 1.98 2 3 C1.01 3 0.02 3 -1 3 C-0.67 2.01 -0.34 1.02 0 0 Z " fill="#FFFFFF" transform="translate(17,48)"/>
<path d="M0 0 C0.33 1.32 0.66 2.64 1 4 C0.34 4 -0.32 4 -1 4 C-0.67 2.68 -0.34 1.36 0 0 Z " fill="#FFFFFF" transform="translate(64,47)"/>
<path d="M0 0 C0.66 0 1.32 0 2 0 C1.67 1.32 1.34 2.64 1 4 C0.67 2.68 0.34 1.36 0 0 Z " fill="#FFFFFF" transform="translate(54,48)"/>
<path d="M0 0 C0.66 0 1.32 0 2 0 C2 0.99 2 1.98 2 3 C1.34 3 0.68 3 0 3 C0 2.01 0 1.02 0 0 Z " fill="#FFFFFF" transform="translate(51,48)"/>
</svg>
